<?xml version="1.0" ?><svg data-name="Layer 3" height="100" id="Layer_3" viewBox="0 0 32 32" xmlns="http://www.w3.org/2000/svg"><defs><style>.cls-2{fill:none;stroke:#000000;stroke-miterlimit:10;}</style></defs><title/><path class="cls-1" d="M7.64,22.15l1.43-1.44A26.21,26.21,0,0,1,4.41,16C5.8,14.17,10.54,8.53,16,8.53a9.66,9.66,0,0,1,4.16,1l1.48-1.49A12,12,0,0,0,16,6.53c-7.53,0-13.41,8.54-13.66,8.91L2,16l.38.56A27.5,27.5,0,0,0,7.64,22.15Z"/><path class="cls-1" d="M29.66,15.44a27.51,27.51,0,0,0-5-5.32l-1.43,1.43A26.47,26.47,0,0,1,27.59,16C26.2,17.83,21.46,23.47,16,23.47a9.44,9.44,0,0,1-3.8-.87l-1.51,1.51A11.82,11.82,0,0,0,16,25.47c7.53,0,13.41-8.54,13.66-8.91L30,16Z"/><rect class="cls-1" height="2" rx="1" ry="1" transform="translate(-6.33 15.28) rotate(-45)" width="26.29" x="2.14" y="14.28"/><path class="cls-1" d="M19.13,12.13l-7,7a5,5,0,1,0,7-7Z"/><line class="cls-2" x1="4.75" x2="10.52" y1="14.08" y2="19.85"/><line class="cls-2" x1="6.23" x2="12" y1="12.65" y2="18.42"/><line class="cls-2" x1="7.67" x2="13.44" y1="11.22" y2="16.99"/><line class="cls-2" x1="9.08" x2="14.85" y1="9.78" y2="15.55"/><line class="cls-2" x1="10.54" x2="16.31" y1="8.35" y2="14.12"/><line class="cls-2" x1="13.18" x2="17.71" y1="8.15" y2="12.68"/><line class="cls-2" x1="15.42" x2="19.12" y1="7.54" y2="11.25"/></svg>

